<svg id="Layer_1" data-name="Layer 1" xmlns="http://www.w3.org/2000/svg" viewBox="0 0 48 48"><defs><style>.cls-1{fill:#fff;}.cls-2,.cls-3{fill:#0072c6;}.cls-3{fill-rule:evenodd;}</style></defs><title>SharePoint_48x1</title><path class="cls-1" d="M30,40a5.46,5.46,0,0,1-5.19-3.7,13,13,0,0,1,0-24.6,5.49,5.49,0,0,1,10.62,1,13,13,0,0,1,5.34,5.8,5.5,5.5,0,0,1,0,11,13,13,0,0,1-5.34,5.8A5.47,5.47,0,0,1,30,40ZM25.6,16.77a8,8,0,0,0,0,14.46,5.45,5.45,0,0,1,8.1-.77,8.06,8.06,0,0,0,2.51-3,5.47,5.47,0,0,1,0-6.87,8.07,8.07,0,0,0-2.51-3,5.45,5.45,0,0,1-8.1-.77Z"/><path class="cls-2" d="M30,9a4.49,4.49,0,0,1,4.48,4.33,12,12,0,0,1,5.65,6.2c.12,0,.24,0,.37,0a4.5,4.5,0,0,1,0,9c-.13,0-.24,0-.37,0a12,12,0,0,1-5.65,6.2,4.49,4.49,0,0,1-8.86.84,12,12,0,0,1,0-23A4.5,4.5,0,0,1,30,9M26,32.48a4.46,4.46,0,0,1,7.54-.72,9,9,0,0,0,3.84-4.52,4.48,4.48,0,0,1,0-6.48,9,9,0,0,0-3.84-4.52A4.46,4.46,0,0,1,26,15.52a9,9,0,0,0,0,17M30,7a6.46,6.46,0,0,0-6,3.91,14,14,0,0,0,0,26.17,6.49,6.49,0,0,0,12.29-1.17,14,14,0,0,0,5.09-5.48,6.5,6.5,0,0,0,0-12.87,14,14,0,0,0-5.09-5.48A6.47,6.47,0,0,0,30,7ZM25.36,30a7,7,0,0,1,0-11.93,6.45,6.45,0,0,0,8.34.8A7.08,7.08,0,0,1,35,20.48a6.48,6.48,0,0,0,0,7,7.08,7.08,0,0,1-1.34,1.65,6.45,6.45,0,0,0-8.34.8Z"/><path class="cls-3" d="M28,3,3,7.38V40.62L28,45Z"/><path class="cls-1" d="M15.92,15.76a6.74,6.74,0,0,0-1.08.15,5.35,5.35,0,0,0-1,.31,4.61,4.61,0,0,0-1.54,1.09,4.57,4.57,0,0,0-1,1.58,5.18,5.18,0,0,0-.24.94,6.45,6.45,0,0,0-.08,1,5.27,5.27,0,0,0,.18,1.41,4.71,4.71,0,0,0,.56,1.26,5.47,5.47,0,0,0,.94,1.11,7.8,7.8,0,0,0,1.33,1l.63.38.52.34.42.31a3.85,3.85,0,0,1,.31.28,2.78,2.78,0,0,1,.29.35,2.2,2.2,0,0,1,.21.36,1.93,1.93,0,0,1,.14,1.11,1.6,1.6,0,0,1-.08.3,1.47,1.47,0,0,1-.14.27,1.52,1.52,0,0,1-.2.24,1.47,1.47,0,0,1-.3.23,1.69,1.69,0,0,1-.36.16,2.25,2.25,0,0,1-.42.09,3.22,3.22,0,0,1-.48,0,4.4,4.4,0,0,1-1-.14,4.48,4.48,0,0,1-.9-.35,5.22,5.22,0,0,1-.85-.55,6.7,6.7,0,0,1-.79-.75v3.61a5.1,5.1,0,0,0,.71.44,5.7,5.7,0,0,0,.8.33,6.78,6.78,0,0,0,.9.23,8.53,8.53,0,0,0,1,.12,8.17,8.17,0,0,0,1.32,0A5.73,5.73,0,0,0,17,32.73a4.37,4.37,0,0,0,1-.45,3.92,3.92,0,0,0,.81-.67,4.12,4.12,0,0,0,.52-.69,4.38,4.38,0,0,0,.37-.8,5.23,5.23,0,0,0,.22-.91,6.67,6.67,0,0,0,.07-1,6,6,0,0,0-.06-.88,5.05,5.05,0,0,0-.19-.81,4.57,4.57,0,0,0-.31-.74,4.52,4.52,0,0,0-.44-.67,5.32,5.32,0,0,0-.48-.52A7.91,7.91,0,0,0,17.9,24q-.34-.26-.74-.53T16.3,23l-.57-.34-.47-.31L14.9,22a2.6,2.6,0,0,1-.26-.26,1.78,1.78,0,0,1-.2-.28,1.8,1.8,0,0,1-.14-.31,2,2,0,0,1-.08-.35,2.47,2.47,0,0,1,0-.38,1.91,1.91,0,0,1,0-.36,1.59,1.59,0,0,1,.1-.32,1.52,1.52,0,0,1,.16-.29,1.67,1.67,0,0,1,.23-.26A1.74,1.74,0,0,1,15,19a1.86,1.86,0,0,1,.33-.16,2.28,2.28,0,0,1,.37-.1,2.93,2.93,0,0,1,.42,0,5.11,5.11,0,0,1,.88,0,4.69,4.69,0,0,1,.84.19,4.76,4.76,0,0,1,.8.34,5.33,5.33,0,0,1,.75.5V16.2a5.61,5.61,0,0,0-.74-.24,6.9,6.9,0,0,0-.82-.15,8.8,8.8,0,0,0-.9-.07q-.47,0-1,0"/></svg>